# xmcd CD database file
#
# Track frame offsets:
#	150
#	17196
#	32621
#	47174
#	77059
#	96152
#	114572
#	131799
#	155220
#	171390
#	189525
#	207956
#	228148
#	248315
#	258261
#
# Disc length: 3717 seconds
#
# Revision: 0
# Processed by: cddbd v1.5.2PL0 Copyright (c) Steve Scherf et al.
# Submitted via: CDex 1.70beta2
#
DISCID=c50e830f
DTITLE=Dieter Fischer, Karoline Höfler, Dieter Schumacher - Dieter Fischer - Trio Music
DYEAR=1999
DGENRE=Jazz
TTITLE0=All The Things You Are
TTITLE1=One Note Samba
TTITLE2=Cute
TTITLE3=In A Sentimental Mood
TTITLE4=Take The Coltrane
TTITLE5=I Remember Wes
TTITLE6=Autumn Leaves
TTITLE7=Bossa Rocka
TTITLE8=Borgia's Stick
TTITLE9=I Hear A Rhapsody
TTITLE10=Caravan
TTITLE11=Mr. PC
TTITLE12=Night And Day
TTITLE13=Hello Dolly
TTITLE14=Old Folks
EXTD=YEAR: 1999
EXTT0=
EXTT1=
EXTT2=
EXTT3=
EXTT4=
EXTT5=
EXTT6=
EXTT7=
EXTT8=
EXTT9=
EXTT10=
EXTT11=
EXTT12=
EXTT13=
EXTT14=
PLAYORDER=
